<svg width="100%" height="100%" viewBox="0 0 3036 1215" version="1.1" xmlns="http://www.w3.org/2000/svg" xmlns:xlink="http://www.w3.org/1999/xlink" xml:space="preserve" xmlns:serif="http://www.serif.com/" style="fill-rule:evenodd;clip-rule:evenodd;stroke-linejoin:round;stroke-miterlimit:2;">
    <g transform="matrix(1,0,0,1,-35393,-40234)">
        <g transform="matrix(4.16667,0,0,4.16667,35156.2,39935.9)">
            <g id="logo-simple" serif:id="logo simple">
                <g transform="matrix(1,0,0,1,56.947,171.04)">
                    <path d="M0,95.215L0,-95.215L35.41,-95.215L35.41,91.674C35.41,139.674 62.559,160.134 108.985,160.134C153.446,160.134 180.2,139.674 180.2,91.674L180.2,-95.215L215.61,-95.215L215.61,95.215C215.61,163.282 168.003,190.43 107.805,190.43C46.427,190.43 0,163.282 0,95.215" style="fill-rule:nonzero;stoke-width: 0px;"/>
                </g>
                <g transform="matrix(1,0,0,1,272.56,221.401)">
                    <path d="M0,69.641L32.656,69.641C36.985,105.051 60.591,114.888 90.887,114.888C124.33,114.888 138.101,100.33 138.101,81.445C138.101,58.624 122.363,52.723 84.985,44.854C44.853,36.59 9.05,28.328 9.05,-16.131C9.05,-49.968 35.017,-72.002 82.231,-72.002C132.593,-72.002 157.38,-48.001 162.101,-8.262L129.445,-8.262C126.298,-35.017 111.74,-46.821 81.445,-46.821C52.329,-46.821 40.526,-33.837 40.526,-17.706C40.526,4.328 60.198,8.657 95.215,15.739C136.134,24 170.364,33.05 170.364,79.87C170.364,120.789 136.92,141.643 90.1,141.643C34.23,141.643 3.148,115.282 0,69.641" style="fill-rule:nonzero;stoke-width: 0px;"/>
                </g>
                <g transform="matrix(1,0,0,1,586.536,228.877)">
                    <path d="M0,53.115L0,18.492C-10.624,25.18 -29.115,30.296 -46.427,33.443C-78.297,39.344 -103.871,44.853 -103.871,74.756C-103.871,101.904 -82.625,107.805 -61.772,107.805C-19.279,107.805 0,76.722 0,53.115M-0.787,99.936L-1.181,99.936C-13.378,115.674 -34.23,132.199 -68.854,132.199C-107.412,132.199 -137.708,114.101 -137.708,75.542C-137.708,27.541 -99.936,17.705 -49.182,9.836C-20.46,5.508 -0.393,2.754 -0.393,-19.28C-0.393,-42.1 -16.919,-55.083 -46.034,-55.083C-79.083,-55.083 -95.609,-40.919 -96.789,-10.23L-127.478,-10.23C-126.297,-49.574 -100.33,-79.084 -46.427,-79.084C-3.147,-79.084 28.722,-62.952 28.722,-14.558L28.722,82.23C28.722,98.756 32.656,107.805 50.362,103.87L51.542,103.87L51.542,127.085C47.607,128.658 42.492,130.232 34.23,130.232C13.377,130.232 2.361,120.789 -0.787,99.936" style="fill-rule:nonzero;stoke-width: 0px;"/>
                </g>
                <g transform="matrix(1,0,0,1,7.27596e-12,-8086.69)">
                    <rect x="648.31" y="8162.52" width="31.869" height="281.317" style="stoke-width: 0px;"/>
                </g>
                <g transform="matrix(1,0,0,1,728.093,121.932)">
                    <path d="M0,-4.512L13.276,-4.512C19.721,-4.512 22.943,-7.734 22.943,-12.761C22.943,-17.917 19.979,-21.139 13.405,-21.139L0,-21.139L0,-4.512ZM-9.023,-28.744L15.467,-28.744C25.264,-28.744 32.095,-22.686 32.095,-14.05C32.095,-7.734 29.002,-2.965 22.17,-1.032L22.17,-0.774C27.584,0.773 29.518,3.996 30.291,10.957C31.064,18.819 31.193,23.202 32.74,23.846L32.74,24.362L23.717,24.362C22.428,23.717 22.042,19.206 21.655,12.246C21.268,5.672 18.045,2.578 11.214,2.578L0,2.578L0,24.362L-9.023,24.362L-9.023,-28.744ZM51.43,-2.192C51.43,-26.94 33.771,-45.243 10.182,-45.243C-13.406,-45.243 -31.065,-26.94 -31.065,-2.192C-31.065,22.557 -13.406,40.732 10.182,40.732C33.771,40.732 51.43,22.557 51.43,-2.192M-36.994,-2.192C-36.994,-29.776 -16.371,-50.271 10.182,-50.271C36.736,-50.271 57.36,-29.776 57.36,-2.192C57.36,25.392 36.736,45.759 10.182,45.759C-16.371,45.759 -36.994,25.392 -36.994,-2.192" style="fill-rule:nonzero;stoke-width: 0px;"/>
                </g>
            </g>
        </g>
    </g>
</svg>
