<?xml version="1.0" encoding="UTF-8" standalone="no"?>
<!DOCTYPE svg PUBLIC "-//W3C//DTD SVG 1.1//EN" "http://www.w3.org/Graphics/SVG/1.1/DTD/svg11.dtd">
<svg width="100%" height="100%" viewBox="0 0 1080 1080" version="1.1" xmlns="http://www.w3.org/2000/svg" xmlns:xlink="http://www.w3.org/1999/xlink" xml:space="preserve" xmlns:serif="http://www.serif.com/" style="fill-rule:evenodd;clip-rule:evenodd;stroke-miterlimit:10;">
    <rect id="Artboard1" x="0" y="0" width="1080" height="1080" style="fill:none;"/>
    <g id="Artboard11" serif:id="Artboard1">
        <g id="string" transform="matrix(2.78096,0,0,2.78096,-5754.25,-12013.9)">
            <g transform="matrix(0.217648,-0.976027,-0.976027,-0.217648,2159.11,4379.8)">
                <path d="M-11.743,-9.412C-17.6,-9.011 -22.348,-3.3 -22.347,3.345C-22.348,9.99 -17.599,15.05 -11.743,14.649C-5.885,14.249 -1.137,8.537 -1.137,1.893C-1.137,-4.753 -5.886,-9.813 -11.743,-9.412Z" style="fill:none;fill-rule:nonzero;stroke:white;stroke-width:4.49px;"/>
            </g>
            <g transform="matrix(0.662773,0.74882,0.74882,-0.662773,2293.66,4266.41)">
                <path d="M-84.19,-189.446C-85.57,-189.446 -86.69,-188.326 -86.69,-186.946C-86.69,-185.567 -85.57,-184.446 -84.19,-184.446L415.119,-184.447C416.499,-184.447 417.619,-185.567 417.619,-186.947C417.619,-188.326 416.499,-189.447 415.119,-189.447L-84.19,-189.446Z" style="fill:white;"/>
            </g>
            <g transform="matrix(1,0,0,1,2370.9,4387.49)">
                <path d="M1.696,248.364C2.71,249.301 2.773,250.884 1.837,251.897C0.9,252.911 -0.683,252.974 -1.696,252.038C-3.465,250.404 -5.453,248.645 -7.594,246.877C-8.658,245.999 -8.808,244.422 -7.93,243.358C-7.051,242.294 -5.474,242.143 -4.41,243.022C-2.193,244.853 -0.136,246.673 1.696,248.364ZM-10.863,238.045C-9.741,238.847 -9.48,240.41 -10.282,241.533C-11.084,242.655 -12.647,242.916 -13.77,242.114C-15.872,240.612 -18.049,239.185 -20.257,237.915C-21.453,237.227 -21.865,235.697 -21.177,234.501C-20.489,233.305 -18.959,232.893 -17.763,233.581C-15.416,234.931 -13.099,236.448 -10.863,238.045ZM-25.282,229.939C-23.994,230.434 -23.351,231.882 -23.847,233.17C-24.342,234.458 -25.79,235.101 -27.078,234.605C-29.472,233.684 -31.84,233.052 -34.121,232.846C-35.496,232.722 -36.51,231.505 -36.386,230.131C-36.262,228.757 -35.046,227.742 -33.671,227.866C-30.956,228.112 -28.132,228.842 -25.282,229.939ZM-42.694,229.143C-41.425,228.603 -39.955,229.195 -39.415,230.464C-38.875,231.734 -39.467,233.203 -40.736,233.744C-42.635,234.552 -44.362,235.906 -45.878,237.894C-46.714,238.991 -48.284,239.203 -49.381,238.367C-50.479,237.53 -50.69,235.96 -49.854,234.863C-47.752,232.106 -45.327,230.263 -42.694,229.143ZM-53.918,242.549C-53.444,241.253 -52.006,240.586 -50.711,241.061C-49.415,241.535 -48.749,242.973 -49.223,244.268C-49.917,246.163 -50.516,248.309 -51.012,250.724C-51.074,251.026 -51.137,251.326 -51.202,251.626C-51.491,252.975 -52.822,253.835 -54.171,253.546C-55.52,253.256 -56.38,251.926 -56.09,250.577C-56.029,250.291 -55.969,250.005 -55.91,249.718C-55.359,247.035 -54.689,244.654 -53.918,242.549ZM-58.027,258.099C-57.628,256.779 -56.231,256.031 -54.911,256.43C-53.59,256.83 -52.842,258.226 -53.242,259.547C-54.062,262.261 -54.977,264.846 -55.965,267.283C-56.484,268.562 -57.943,269.179 -59.221,268.661C-60.5,268.142 -61.117,266.683 -60.599,265.405C-59.665,263.103 -58.803,260.662 -58.027,258.099ZM-63.863,272.375C-63.208,271.161 -61.69,270.708 -60.476,271.363C-59.262,272.019 -58.808,273.537 -59.464,274.751C-60.881,277.374 -62.383,279.734 -63.933,281.795C-64.762,282.898 -66.331,283.12 -67.433,282.291C-68.536,281.462 -68.758,279.893 -67.929,278.79C-66.518,276.914 -65.153,274.764 -63.863,272.375ZM-72.954,284.118C-71.875,283.258 -70.3,283.437 -69.441,284.516C-68.581,285.595 -68.759,287.169 -69.838,288.029C-72.71,290.317 -75.629,291.579 -78.384,291.781C-79.761,291.882 -80.96,290.847 -81.061,289.471C-81.162,288.095 -80.126,286.895 -78.75,286.794C-76.866,286.656 -74.918,285.683 -72.954,284.118ZM-83.788,284.542C-82.854,285.557 -82.919,287.14 -83.935,288.075C-84.95,289.009 -86.533,288.943 -87.467,287.928C-89.131,286.12 -90.649,283.585 -91.9,280.221C-92.38,278.928 -91.721,277.487 -90.427,277.006C-89.134,276.526 -87.694,277.185 -87.213,278.479C-86.233,281.114 -85.092,283.126 -83.788,284.542ZM-89.164,271.191C-88.908,272.547 -89.8,273.855 -91.156,274.112C-92.512,274.368 -93.821,273.475 -94.077,272.119C-94.538,269.678 -94.911,266.969 -95.181,263.979C-95.305,262.605 -94.29,261.389 -92.916,261.265C-91.542,261.14 -90.325,262.155 -90.201,263.529C-89.947,266.343 -89.598,268.893 -89.164,271.191ZM-91.352,255.489C-91.147,256.854 -92.088,258.128 -93.452,258.333C-94.817,258.538 -96.091,257.597 -96.296,256.232L-97.482,248.345C-97.687,246.981 -96.745,245.706 -95.381,245.501C-94.016,245.296 -92.742,246.237 -92.537,247.602L-91.352,255.489ZM-93.723,239.714C-93.518,241.079 -94.459,242.353 -95.823,242.558C-97.188,242.763 -98.462,241.822 -98.667,240.458L-99.852,232.57C-100.058,231.206 -99.116,229.931 -97.752,229.726C-96.387,229.521 -95.113,230.463 -94.908,231.827L-93.723,239.714ZM-96.093,223.94C-95.888,225.304 -96.83,226.578 -98.194,226.783C-99.559,226.988 -100.833,226.047 -101.038,224.683L-101.442,221.993C-101.443,221.985 -101.444,221.977 -101.446,221.97C-101.446,221.97 -101.705,220.127 -102.176,216.762C-102.367,215.396 -101.412,214.131 -100.046,213.94C-98.679,213.749 -97.415,214.704 -97.224,216.07C-96.775,219.28 -96.518,221.103 -96.496,221.261L-96.093,223.94ZM-98.325,208.172C-98.135,209.539 -99.09,210.803 -100.457,210.993C-101.823,211.183 -103.087,210.227 -103.277,208.861C-103.605,206.498 -103.972,203.854 -104.373,200.959C-104.562,199.592 -103.606,198.329 -102.239,198.14C-100.872,197.951 -99.609,198.907 -99.42,200.273C-99.02,203.167 -98.653,205.811 -98.325,208.172ZM-100.511,192.374C-100.322,193.741 -101.279,195.004 -102.646,195.192C-104.013,195.38 -105.276,194.423 -105.464,193.056C-105.81,190.547 -106.173,187.908 -106.55,185.153C-106.738,183.786 -105.78,182.524 -104.413,182.337C-103.046,182.149 -101.784,183.107 -101.597,184.474C-101.219,187.227 -100.856,189.865 -100.511,192.374ZM-102.678,176.573C-102.492,177.94 -103.45,179.201 -104.817,179.388C-106.184,179.575 -107.446,178.617 -107.632,177.25C-107.982,174.689 -108.342,172.051 -108.71,169.345C-108.895,167.978 -107.936,166.717 -106.569,166.531C-105.202,166.345 -103.941,167.304 -103.755,168.671C-103.387,171.376 -103.028,174.013 -102.678,176.573ZM-104.827,160.769C-104.642,162.137 -105.602,163.397 -106.969,163.582C-108.337,163.767 -109.597,162.808 -109.782,161.44C-110.132,158.853 -110.489,156.215 -110.85,153.534C-111.034,152.167 -110.074,150.907 -108.706,150.723C-107.339,150.539 -106.079,151.499 -105.895,152.867C-105.534,155.546 -105.178,158.183 -104.827,160.769ZM-106.957,144.963C-106.774,146.331 -107.735,147.59 -109.103,147.773C-110.47,147.957 -111.729,146.995 -111.913,145.628C-112.262,143.023 -112.615,140.385 -112.97,137.721C-113.153,136.353 -112.191,135.094 -110.823,134.912C-109.455,134.73 -108.197,135.692 -108.014,137.059C-107.659,139.723 -107.306,142.359 -106.957,144.963ZM-109.066,129.155C-108.885,130.523 -109.848,131.78 -111.216,131.962C-112.583,132.143 -113.841,131.18 -114.023,129.812C-114.37,127.194 -114.719,124.556 -115.069,121.903C-115.249,120.536 -114.285,119.278 -112.917,119.098C-111.549,118.918 -110.292,119.882 -110.112,121.25C-109.762,123.901 -109.413,126.538 -109.066,129.155ZM-111.151,113.344C-110.972,114.712 -111.937,115.968 -113.305,116.147C-114.673,116.327 -115.93,115.362 -116.109,113.994C-116.454,111.364 -116.799,108.725 -117.143,106.083C-117.321,104.714 -116.354,103.459 -114.986,103.281C-113.618,103.103 -112.363,104.069 -112.184,105.437C-111.841,108.078 -111.496,110.715 -111.151,113.344ZM-113.21,97.53C-113.033,98.898 -114.001,100.153 -115.369,100.33C-116.737,100.506 -117.992,99.539 -118.169,98.171C-118.51,95.53 -118.85,92.891 -119.187,90.257C-119.363,88.889 -118.394,87.635 -117.025,87.46C-115.657,87.284 -114.403,88.253 -114.228,89.622C-113.891,92.253 -113.551,94.891 -113.21,97.53ZM-115.237,81.712C-115.063,83.081 -116.033,84.334 -117.402,84.507C-118.771,84.681 -120.023,83.711 -120.197,82.342C-120.534,79.691 -120.868,77.05 -121.198,74.426C-121.37,73.057 -120.398,71.806 -119.029,71.634C-117.66,71.462 -116.409,72.433 -116.237,73.802C-115.907,76.425 -115.574,79.063 -115.237,81.712ZM-117.226,65.892C-117.055,67.261 -118.029,68.511 -119.398,68.681C-120.767,68.851 -122.017,67.877 -122.187,66.508C-122.519,63.844 -122.845,61.202 -123.165,58.588C-123.333,57.219 -122.358,55.971 -120.988,55.803C-119.619,55.635 -118.37,56.61 -118.202,57.98C-117.882,60.591 -117.556,63.23 -117.226,65.892ZM-119.165,50.067C-119,51.437 -119.978,52.683 -121.348,52.849C-122.718,53.014 -123.964,52.036 -124.129,50.666C-124.453,47.985 -124.77,45.341 -125.078,42.741C-125.24,41.371 -124.259,40.127 -122.889,39.964C-121.519,39.802 -120.275,40.783 -120.112,42.153C-119.805,44.749 -119.489,47.389 -119.165,50.067ZM-121.04,34.237C-120.882,35.608 -121.865,36.85 -123.236,37.009C-124.607,37.167 -125.848,36.184 -126.007,34.813C-126.321,32.106 -126.623,29.459 -126.914,26.881C-127.068,25.51 -126.081,24.271 -124.709,24.117C-123.338,23.962 -122.1,24.95 -121.945,26.321C-121.655,28.895 -121.353,31.536 -121.04,34.237ZM-122.821,18.404C-122.673,19.775 -123.665,21.01 -125.037,21.159C-126.409,21.308 -127.643,20.315 -127.792,18.943C-128.091,16.192 -128.372,13.539 -128.634,10.998C-128.775,9.625 -127.776,8.396 -126.403,8.255C-125.031,8.113 -123.801,9.113 -123.66,10.485C-123.399,13.018 -123.119,15.662 -122.821,18.404ZM-124.447,2.568C-124.316,3.941 -125.325,5.163 -126.699,5.293C-128.072,5.424 -129.294,4.415 -129.424,3.042C-129.697,0.181 -129.936,-2.485 -130.138,-4.934C-130.251,-6.309 -129.227,-7.518 -127.852,-7.631C-126.477,-7.745 -125.268,-6.72 -125.155,-5.345C-124.954,-2.916 -124.717,-0.27 -124.447,2.568ZM-125.719,-13.236C-125.641,-11.858 -126.696,-10.677 -128.074,-10.599C-129.451,-10.521 -130.633,-11.576 -130.711,-12.954C-130.712,-12.98 -130.714,-13.007 -130.715,-13.033C-130.871,-15.821 -131.128,-18.358 -131.474,-20.656C-131.68,-22.02 -130.74,-23.295 -129.375,-23.501C-128.011,-23.707 -126.736,-22.766 -126.53,-21.402C-126.163,-18.964 -125.889,-16.271 -125.723,-13.313C-125.721,-13.287 -125.72,-13.262 -125.719,-13.236ZM-128.382,-29.568C-127.957,-28.255 -128.679,-26.845 -129.992,-26.421C-131.305,-25.997 -132.715,-26.718 -133.14,-28.031C-134.006,-30.714 -135.052,-32.804 -136.272,-34.329C-137.134,-35.407 -136.958,-36.981 -135.881,-37.843C-134.803,-38.705 -133.229,-38.529 -132.367,-37.452C-130.835,-35.536 -129.47,-32.937 -128.382,-29.568ZM-140.997,-42.111C-139.618,-42.066 -138.535,-40.909 -138.581,-39.53C-138.627,-38.151 -139.784,-37.068 -141.163,-37.114C-143.047,-37.177 -145.033,-36.376 -147.058,-34.972C-148.192,-34.186 -149.751,-34.468 -150.537,-35.602C-151.323,-36.736 -151.041,-38.295 -149.907,-39.081C-146.868,-41.188 -143.824,-42.206 -140.997,-42.111ZM-156.187,-33.17C-155.303,-34.23 -153.725,-34.373 -152.666,-33.489C-151.606,-32.605 -151.463,-31.027 -152.347,-29.968C-153.844,-28.172 -155.304,-26.091 -156.696,-23.763C-157.404,-22.579 -158.94,-22.192 -160.124,-22.899C-161.309,-23.607 -161.696,-25.143 -160.988,-26.328C-159.453,-28.896 -157.839,-31.189 -156.187,-33.17ZM-164.797,-19.003C-164.228,-20.26 -162.746,-20.819 -161.489,-20.25C-160.232,-19.682 -159.673,-18.199 -160.241,-16.942C-161.263,-14.683 -162.217,-12.278 -163.085,-9.747C-163.533,-8.441 -164.956,-7.745 -166.261,-8.193C-167.566,-8.64 -168.262,-10.063 -167.815,-11.368C-166.894,-14.054 -165.881,-16.605 -164.797,-19.003ZM-170.135,-3.519C-169.8,-4.858 -168.441,-5.672 -167.102,-5.336C-165.764,-5 -164.95,-3.641 -165.285,-2.303C-165.383,-1.914 -165.478,-1.524 -165.572,-1.131C-166.172,1.397 -166.874,3.648 -167.663,5.644C-168.171,6.927 -169.624,7.557 -170.907,7.05C-172.191,6.542 -172.82,5.089 -172.313,3.805C-171.603,2.011 -170.976,-0.014 -170.436,-2.285C-170.338,-2.699 -170.238,-3.11 -170.135,-3.519ZM-175.82,10.093C-174.957,9.017 -173.382,8.845 -172.306,9.708C-171.23,10.572 -171.057,12.147 -171.921,13.223C-174.084,15.919 -176.548,17.705 -179.202,18.771C-180.482,19.286 -181.939,18.664 -182.454,17.384C-182.968,16.104 -182.346,14.646 -181.066,14.132C-179.147,13.361 -177.385,12.043 -175.82,10.093ZM-187.707,14.914C-186.335,15.06 -185.34,16.293 -185.487,17.665C-185.633,19.037 -186.866,20.032 -188.238,19.885C-190.952,19.595 -193.763,18.819 -196.593,17.677C-197.872,17.16 -198.492,15.702 -197.975,14.423C-197.458,13.143 -196,12.524 -194.721,13.041C-192.344,14 -189.986,14.67 -187.707,14.914ZM-201.484,9.619C-200.3,10.327 -199.914,11.863 -200.622,13.047C-201.331,14.232 -202.867,14.618 -204.051,13.91C-206.376,12.519 -208.666,10.962 -210.874,9.326C-211.983,8.504 -212.215,6.937 -211.394,5.828C-210.572,4.72 -209.005,4.487 -207.897,5.309C-205.821,6.847 -203.669,8.312 -201.484,9.619ZM-213.986,0.437C-212.938,1.335 -212.816,2.914 -213.714,3.962C-214.611,5.01 -216.191,5.132 -217.239,4.234C-219.42,2.366 -221.444,0.509 -223.248,-1.218C-224.244,-2.173 -224.278,-3.757 -223.323,-4.753C-222.369,-5.749 -220.785,-5.783 -219.789,-4.829C-218.047,-3.161 -216.093,-1.368 -213.986,0.437Z" style="fill:white;"/>
            </g>
            <g transform="matrix(0.217648,-0.976027,-0.976027,-0.217648,2376.79,4625.74)">
                <path d="M-11.742,-9.412C-17.6,-9.011 -22.348,-3.3 -22.347,3.346C-22.347,9.99 -17.599,15.051 -11.742,14.65C-5.884,14.248 -1.136,8.537 -1.136,1.892C-1.137,-4.752 -5.885,-9.814 -11.742,-9.412Z" style="fill:none;fill-rule:nonzero;stroke:white;stroke-width:4.49px;"/>
            </g>
            <g transform="matrix(0.217648,-0.976027,-0.976027,-0.217648,2376.79,4625.74)">
                <path d="M-11.742,-9.412C-17.6,-9.011 -22.348,-3.3 -22.347,3.346C-22.347,9.99 -17.599,15.051 -11.742,14.65C-5.884,14.248 -1.136,8.537 -1.136,1.892C-1.137,-4.752 -5.885,-9.814 -11.742,-9.412" style="fill:white;fill-rule:nonzero;"/>
            </g>
            <g transform="matrix(0.217648,-0.976027,-0.976027,-0.217648,2159.11,4379.8)">
                <path d="M-11.743,-9.412C-17.6,-9.011 -22.348,-3.3 -22.347,3.345C-22.348,9.99 -17.599,15.05 -11.743,14.649C-5.885,14.249 -1.137,8.537 -1.137,1.893C-1.137,-4.753 -5.886,-9.813 -11.743,-9.412" style="fill:white;fill-rule:nonzero;"/>
            </g>
        </g>
    </g>
</svg>
